<svg xmlns="http://www.w3.org/2000/svg" width="640" height="110" viewBox="90 40 700 120" role="img" aria-labelledby="title desc">
  <title id="title">Canvas Folding toolbar</title>
  <desc id="desc">The movable Canvas Folding toolbar with branch, focus, whole-canvas, controls, graph, status, and close actions.</desc>
  <defs>
    <pattern id="grid" width="24" height="24" patternUnits="userSpaceOnUse">
      <circle cx="2" cy="2" r="1.3" fill="#cbd1dc"/>
    </pattern>
    <filter id="shadow" x="-10%" y="-30%" width="120%" height="160%">
      <feDropShadow dx="0" dy="5" stdDeviation="7" flood-color="#202636" flood-opacity="0.16"/>
    </filter>
    <style>
      .icon { fill: none; stroke: #4f5663; stroke-width: 3; stroke-linecap: round; stroke-linejoin: round; }
      .separator { stroke: #d1d5dd; stroke-width: 2; }
    </style>
  </defs>
  <rect width="960" height="200" rx="18" fill="#f6f7fa"/>
  <rect width="960" height="200" rx="18" fill="url(#grid)"/>
  <g filter="url(#shadow)">
    <rect x="110" y="58" width="665" height="84" rx="14" fill="#ffffff" stroke="#bcc3cf" stroke-width="2"/>
  </g>

  <g fill="#596170">
    <circle cx="139" cy="88" r="3"/><circle cx="151" cy="88" r="3"/>
    <circle cx="139" cy="100" r="3"/><circle cx="151" cy="100" r="3"/>
    <circle cx="139" cy="112" r="3"/><circle cx="151" cy="112" r="3"/>
  </g>
  <path class="icon" d="M184 100h22"/>
  <path class="icon" d="M229 100h22M240 89v22"/>
  <line class="separator" x1="270" y1="75" x2="270" y2="125"/>

  <g class="icon">
    <path d="M294 88v-7h7M326 88v-7h-7M294 112v7h7M326 112v7h-7"/>
    <circle cx="310" cy="100" r="7"/>
  </g>
  <line class="separator" x1="346" y1="75" x2="346" y2="125"/>

  <path class="icon" d="M369 100h22"/>
  <g class="icon">
    <path d="m423 85 18 9-18 9-18-9 18-9Z"/>
    <path d="m405 102 18 9 18-9M405 110l18 9 18-9"/>
  </g>
  <path class="icon" d="M461 100h22M472 89v22"/>
  <line class="separator" x1="502" y1="75" x2="502" y2="125"/>

  <g class="icon">
    <path d="M525 100s9-13 20-13 20 13 20 13-9 13-20 13-20-13-20-13Z"/>
    <circle cx="545" cy="100" r="5"/>
  </g>
  <line class="separator" x1="582" y1="75" x2="582" y2="125"/>

  <g class="icon">
    <rect x="607" y="79" width="10" height="10" rx="1"/>
    <rect x="592" y="111" width="10" height="10" rx="1"/>
    <rect x="622" y="111" width="10" height="10" rx="1"/>
    <path d="M612 89v12M597 101h30M597 101v10M627 101v10"/>
  </g>
  <g class="icon">
    <circle cx="665" cy="100" r="17"/>
    <path d="M665 98v11M665 90h.01"/>
  </g>
  <line class="separator" x1="700" y1="75" x2="700" y2="125"/>
  <path class="icon" d="m728 89 22 22M750 89l-22 22"/>
</svg>
